PathFileType	4	(X/Y/Z)	C:\Users\WrightLab\Desktop\Jo\P4V110.trc
DataRate	CameraRate	NumFrames	NumMarkers	Units	OrigDataRate	OrigDataStartFrame	OrigNumFrames
100.00	100.00	       23	19	mm	100.00	238	       633
Frame#	Time	Headset_Front			Headset_Back			Headset_Left			Headset_Right			Left_Shoulder			Right_Shoulder			Sternum			C7			Left Elbow			Right Elbow			Left Wrist			Right Wrist			Left ASIS			Right ASIS			S2			Left Knee			Right Knee			Left Ankle			Right Ankle			
		X1	Y1	Z1	X2	Y2	Z2	X3	Y3	Z3	X4	Y4	Z4	X5	Y5	Z5	X6	Y6	Z6	X7	Y7	Z7	X8	Y8	Z8	X9	Y9	Z9	X10	Y10	Z10	X11	Y11	Z11	X12	Y12	Z12	X13	Y13	Z13	X14	Y14	Z14	X15	Y15	Z15	X16	Y16	Z16	X17	Y17	Z17	X18	Y18	Z18	X19	Y19	Z19	

238	2.370	-678.58063	1682.26831	-436.42178	-602.99524	1439.70776	-459.84167							-435.80963	1496.70337	-528.99835	-731.67670	1502.67102	-613.36761	-584.01617	1754.81848	-638.26147	-570.20477	1532.30212	-622.50397	-300.59039	1144.35229	-489.19992	-888.99084	1164.07068	-642.47253	-370.59280	867.40179	-362.71021	-936.79419	900.88043	-487.31302	-485.54333	984.26648	-445.92322	-803.92780	1025.85107	-538.98004				-588.51038	513.53534	-410.77512	-882.94293	545.25159	-566.75159	-723.40363	38.93616	-491.89899				
239	2.380	-678.14044	1684.18713	-425.83908	-602.72534	1441.58521	-449.92163							-435.82034	1498.50317	-522.95355	-733.01819	1503.75354	-601.98486	-584.59271	1756.51294	-628.66498	-571.89191	1533.82422	-613.52393	-302.19739	1146.38892	-477.78159	-891.19666	1165.92419	-631.26251	-372.51636	870.46307	-348.54834	-938.71826	901.44031	-478.97183	-484.87338	983.91132	-439.48315	-804.30560	1027.49731	-523.23132				-587.05139	513.84161	-406.84329	-885.55035	548.40869	-541.69171	-723.17932	38.67009	-491.85153				
240	2.390	-677.42163	1686.47559	-416.04276	-602.70422	1443.19678	-440.71619							-437.09195	1499.53357	-510.84799	-734.57288	1505.31018	-590.67853	-585.24774	1757.92664	-618.69940	-573.57056	1535.39758	-603.51105	-303.26434	1147.78357	-466.86511	-893.26538	1167.69751	-620.11023	-374.75418	875.26831	-332.77133	-940.70404	901.72552	-471.33551	-482.64548	986.35602	-429.89117	-802.17145	1028.43030	-514.23608				-585.74896	512.21490	-403.19632	-888.64307	551.93530	-516.70343	-723.17932	38.67009	-491.85153				
241	2.400	-676.71320	1688.04321	-405.43582	-601.34662	1444.29919	-430.86826							-437.02283	1500.29504	-501.74603	-735.51196	1506.70374	-578.96442	-585.88428	1759.31421	-608.56519	-575.16711	1537.00085	-594.31396	-304.41458	1149.90076	-456.10474	-895.15137	1169.66626	-609.81714	-376.59448	878.41626	-317.70114	-941.12781	901.90125	-462.70016	-479.86362	987.21075	-424.47598	-803.09143	1033.48999	-492.48709				-584.43481	512.90723	-399.49741	-890.01447	556.18079	-492.12234	-722.50458	38.52061	-492.37857				
242	2.410	-675.99396	1689.34998	-394.83606	-601.95752	1445.73926	-420.95303							-437.94571	1502.26929	-496.17776	-736.83185	1507.52673	-567.77252	-586.56659	1760.62891	-599.28918	-576.83966	1538.29688	-584.99872	-305.59702	1151.73755	-444.51730	-896.93793	1171.51416	-599.64716	-378.65811	881.95325	-301.39246	-942.30420	901.94806	-453.76175	-477.18604	987.53143	-417.66861	-801.94800	1035.75500	-480.70700				-582.39301	512.76105	-395.08914	-891.10370	559.90588	-467.94415	-723.17932	38.67009	-491.85153	-750.17322	263.55051	-843.46106	
243	2.420	-675.22198	1690.18396	-384.56128	-601.07721	1447.29956	-411.70813							-438.32852	1503.26050	-487.53656	-738.27557	1508.95105	-556.38086	-587.25104	1762.07813	-589.61871	-578.30933	1539.62976	-575.55273	-307.46454	1153.28748	-434.46542	-898.66229	1172.87512	-589.25031	-380.72507	886.68140	-287.79047	-942.40143	902.55011	-446.34006	-474.57086	988.34235	-410.92792	-798.56525	1037.61426	-467.83374				-578.96350	513.37115	-392.10565	-891.24518	563.81647	-443.21957	-723.89313	38.48923	-491.84488	-763.19202	264.84470	-824.15186	
244	2.430	-674.44165	1690.96289	-374.73898	-600.91730	1448.36414	-402.50394							-438.35422	1505.31555	-484.18320	-739.65936	1510.06860	-544.88495				-579.76813	1540.34863	-566.53851	-308.70987	1155.54041	-423.56985	-900.10980	1174.10791	-578.58234	-382.44095	891.28082	-272.15424	-943.46912	902.86627	-436.66071	-471.74442	988.65173	-405.57269	-797.58423	1039.09888	-454.29770				-579.72589	512.20337	-388.84409	-890.29401	567.80353	-419.34271	-724.22400	38.85432	-491.72757	-776.94568	264.05731	-799.80060	
245	2.440	-673.89636	1692.25671	-364.59396	-600.62079	1451.09192	-393.33383							-439.02008	1506.73169	-477.98111	-740.41321	1511.06165	-534.07587				-580.97778	1541.45789	-557.59387	-309.48706	1157.05432	-414.36496	-901.43909	1175.35437	-567.77191	-384.37357	895.38989	-256.22433	-944.00586	903.82428	-429.13251	-470.38666	989.55621	-398.63571	-795.72601	1041.03955	-440.84219				-577.50708	511.91629	-387.00534	-889.12781	571.68561	-395.60306	-724.11475	39.35387	-491.37045	-790.48566	261.63107	-774.87640	
246	2.450	-673.06512	1693.10327	-354.55679	-598.63318	1449.92847	-384.22797							-439.37802	1506.63110	-466.60034	-741.28278	1512.03296	-522.39398				-582.54407	1542.24548	-548.81311	-310.93787	1158.60693	-403.35120	-902.55884	1176.63440	-556.93103	-386.55298	900.34192	-241.85199	-945.29419	903.65344	-419.51648	-466.65964	987.29498	-395.85687	-794.08844	1042.49878	-426.46738				-577.53485	511.01022	-384.51080	-887.56915	575.99896	-372.47784	-724.50238	39.95399	-490.93771	-803.78607	258.66745	-750.03009	
247	2.460	-672.18439	1693.75220	-344.36212	-597.46899	1450.66357	-375.25470							-439.06815	1507.80481	-462.28101	-742.04620	1512.68835	-510.72186				-583.84003	1543.24109	-540.17786	-311.93790	1159.36548	-393.18198	-903.76434	1178.14136	-546.64423	-388.78436	904.80066	-226.12634	-944.65039	903.70428	-409.77280	-464.62616	987.12354	-388.87720	-791.98480	1044.05603	-412.71371				-576.90326	511.40262	-383.12421	-884.64948	579.90967	-349.47137	-724.96008	39.95708	-490.49963	-817.02734	253.06621	-722.81604	
248	2.470	-671.46179	1694.01306	-334.57922	-600.97687	1454.48462	-370.37222							-438.75095	1508.07336	-454.62265	-742.63538	1513.44739	-499.22800				-584.74646	1544.04285	-530.67810	-312.95337	1160.80884	-383.84378	-904.94543	1179.49243	-536.17975	-390.99240	910.03516	-212.62918	-944.61768	903.89545	-400.61209	-461.84976	987.36359	-383.84241	-789.90240	1045.45740	-398.20932				-576.43787	510.79642	-381.81998	-880.83368	582.75757	-327.12360	-725.17242	40.16904	-490.29727	-829.45197	248.88319	-698.63715	
249	2.480	-670.23431	1694.66321	-324.29028	-595.31256	1451.31470	-356.98984							-439.02066	1508.54919	-447.60367	-743.37677	1513.79675	-488.31665				-585.58521	1544.40894	-521.48517	-313.64380	1162.01624	-374.27148	-905.96039	1180.52454	-525.48730	-393.03214	913.58264	-198.66565	-945.45776	904.47491	-392.14893	-459.85141	987.10474	-378.83224	-787.91809	1047.06775	-384.61230				-576.10114	510.85144	-380.22531	-876.68579	586.24164	-305.15790	-725.24030	40.64647	-490.43811	-842.55432	242.68129	-669.28638	
250	2.490	-669.26349	1694.94714	-315.26462	-593.43207	1451.84021	-347.14218							-438.76624	1509.06067	-441.52686	-743.59149	1514.63965	-477.23370				-586.32074	1544.73572	-512.24121	-314.55676	1162.95581	-363.36588	-906.77484	1180.89099	-513.92889	-394.69199	919.05377	-183.94455	-944.76746	904.17340	-382.29633	-457.89810	987.22931	-373.85995	-784.51086	1046.86670	-370.15765				-575.25482	511.22290	-378.50839	-872.45514	589.38147	-283.51160	-725.39789	40.82109	-490.37875	-854.02161	236.35776	-641.46228	
251	2.500				-591.08655	1451.40442	-337.97742							-438.63519	1508.88379	-431.93854	-744.00006	1514.90527	-465.59039				-587.05933	1545.22253	-502.74060	-314.64682	1163.66504	-354.39081	-907.21149	1181.64355	-502.61066	-396.80197	922.96082	-169.53329	-945.23096	904.55658	-371.86783	-456.22858	986.35950	-369.64273	-782.34528	1048.73145	-356.60480				-574.31592	510.83926	-376.31015	-867.59131	592.06818	-263.27213	-725.45673	41.23737	-490.06290	-865.39722	228.31873	-611.72272	
252	2.510	-605.62402	1040.09009	-544.93188	-589.57037	1451.81946	-328.43546							-437.77924	1508.93420	-426.86685	-744.27423	1515.64075	-454.67410				-587.62592	1545.59998	-493.16089	-314.98340	1164.50256	-345.71301	-907.90881	1182.95117	-491.81821	-398.91956	928.05585	-156.61005	-945.20587	904.83453	-361.96320	-453.10910	985.97498	-366.39063	-780.48566	1049.15454	-343.35587				-573.52637	510.01880	-374.39087	-862.40283	595.03687	-242.32518	-725.48743	41.35809	-489.97388	-875.64313	220.01192	-579.88422	
253	2.520	-609.24841	1039.79700	-534.63690	-588.50720	1451.68445	-319.37808							-437.41931	1509.27075	-421.27844	-744.06232	1515.99377	-442.86005				-587.91864	1545.51196	-484.23477	-315.41364	1165.22107	-337.63361	-908.36694	1183.86853	-480.63770	-400.59140	933.46301	-143.32362	-944.28546	904.01691	-351.84918	-451.89230	985.37494	-361.80765	-778.35986	1050.34070	-329.68491				-572.43799	510.13159	-371.70279	-855.10876	597.38104	-222.73152	-725.76611	41.68405	-489.94064	-884.54761	211.49361	-548.48792	
254	2.530	-612.30243	1040.63025	-525.93683	-585.66156	1451.93054	-310.21301							-436.55612	1508.58862	-412.72006	-744.18591	1516.49976	-431.98117				-588.54486	1546.36475	-475.72690	-315.26996	1165.66162	-328.56653	-909.36414	1184.86340	-468.83737	-402.02628	937.92505	-129.83153	-944.55719	905.13641	-343.37982	-448.18597	985.78607	-356.91592	-775.33319	1050.79846	-316.59271				-572.43768	510.01422	-370.96695	-850.22052	600.27417	-204.00264	-725.96045	41.92993	-489.61597	-892.07111	202.14949	-515.06982	
255	2.540	-615.37207	1040.80054	-516.10321	-583.38525	1451.18152	-299.63541							-435.67676	1510.13977	-403.90073	-743.62891	1516.55908	-420.52991				-588.92322	1546.37292	-466.87119	-315.46271	1165.94543	-320.13525	-908.29767	1184.90649	-457.24872	-404.14130	942.79083	-117.82922	-943.57831	904.98914	-331.42056	-447.74762	985.95013	-352.62244	-772.98547	1051.10352	-303.33853				-572.01398	509.70401	-368.88364	-840.99890	601.78424	-185.79066	-726.08459	42.34642	-489.56641	-898.75708	193.56732	-481.47278	
256	2.550	-617.96368	1041.81140	-508.04099	-581.72437	1452.37207	-291.01587							-435.60376	1509.10718	-401.73212	-742.93182	1517.26416	-409.25739				-588.70465	1546.33386	-456.51511	-315.10818	1166.51184	-312.20142	-909.59357	1186.38074	-445.69864	-405.10358	947.39209	-105.43211	-942.18481	904.66736	-321.50488	-447.44894	985.11304	-347.37247	-770.14258	1051.44141	-290.65775				-572.11383	509.62665	-366.98355	-833.43933	603.23792	-168.28226	-726.27203	43.26265	-489.11819	-903.29224	183.20486	-446.12656	
257	2.560	-620.68616	1041.81128	-498.27444	-579.64209	1451.43384	-281.98862							-434.85208	1508.51819	-393.19376	-742.27521	1517.34106	-397.30493				-588.62769	1546.70691	-447.25113	-314.85608	1166.31152	-303.92175	-908.05182	1186.52539	-433.65189	-406.71631	951.69049	-94.13250	-941.40771	905.12134	-310.20322	-446.46594	985.18005	-342.01758	-767.35437	1051.87830	-278.47241				-571.95911	509.79916	-365.34262	-825.85388	604.37897	-152.98196	-726.34302	44.20725	-489.32532	-906.55573	172.89107	-409.85211	
258	2.570	-623.36224	1041.58362	-487.97058	-577.58813	1450.51208	-273.69678							-433.52365	1508.10461	-382.04758	-741.58759	1517.45154	-385.81808				-588.41620	1546.43762	-437.98535	-314.87445	1165.88635	-296.01779	-909.12610	1187.53735	-421.33676	-408.61279	955.57361	-83.30029	-940.56763	905.27271	-299.19321	-444.89441	984.80054	-336.83945	-765.24500	1052.13220	-266.16299				-571.88763	510.01407	-363.98325	-817.41327	605.15924	-137.95209	-726.22852	44.82698	-488.75781	-908.12970	162.85867	-373.35068	
259	2.580	-625.71063	1042.20337	-479.59558	-575.44910	1451.36597	-262.90274							-432.91699	1507.30676	-376.95560	-740.80890	1518.08276	-374.53979				-588.16455	1546.63257	-429.28619	-313.97781	1166.19885	-287.95035	-908.18420	1188.14063	-409.14557	-409.35181	960.62262	-71.15858	-938.66473	905.06677	-288.03668	-444.38498	984.59851	-331.56564	-762.07245	1052.37109	-253.52255				-571.58990	510.10989	-361.89124	-809.69379	605.82831	-121.35780	-726.09601	45.43645	-488.48447	-908.89636	152.09689	-334.95175	
260	2.590				-571.44458	1451.33716	-251.65160							-431.17935	1506.78687	-367.15363	-739.23413	1517.97046	-362.99020				-587.29504	1546.18567	-419.40201	-313.82074	1165.77686	-279.33414	-908.05444	1188.73730	-396.76578	-410.02682	964.74420	-60.55728	-937.91571	905.50153	-277.12921	-443.78070	983.57117	-326.41138	-759.16351	1051.73047	-241.17590				-571.95813	510.22900	-360.46484	-802.74310	606.52930	-108.69033	-724.04602	46.12050	-488.93375	-906.26514	142.48477	-298.25482	
